<svg xmlns="http://www.w3.org/2000/svg" fill="none" viewBox="0 0 961 1740">
  <path fill="url(#a)" fill-opacity=".2" d="M169.773 383.445C153.191 346.31 136.291 308.461 125 250h355.498v1286H436.39v-324.09c0-65.24-58.392-118.66-86.019-171.41l-.002-.01c-30.169-57.611-59.926-114.436-52.383-185.009 8.163-76.386-12.059-122.624-35.322-175.815l-.001-.002c-17.91-40.952-37.623-86.025-47.571-152.152-9.658-64.203-27.3-103.713-45.319-144.067Z"/>
  <path fill="url(#b)" fill-opacity=".2" d="M480.503 1536V250H836c-11.289 58.453-28.187 96.3-44.764 133.43l-.007.015-.003.006c-18.018 40.352-35.66 79.861-45.318 144.061-9.949 66.128-29.66 111.202-47.571 152.154-23.264 53.191-43.485 99.428-35.322 175.815 7.542 70.573-22.214 127.398-52.383 185.009l-.002.01c-27.627 52.75-86.019 106.17-86.019 171.41V1536h-44.108Z"/>
  <path fill="url(#c)" fill-opacity=".1" d="M60.515 180.556C38.103 130.311 15.261 79.1 0 0h480.497v1740H420.88v-438.5c0-88.28-78.923-160.55-116.265-231.93l-.002-.01c-40.778-77.951-80.997-154.837-70.803-250.325 11.034-103.353-16.298-165.914-47.741-237.883l-.001-.002c-24.208-55.41-50.852-116.395-64.297-205.867-13.055-86.869-36.9-140.328-61.256-194.927Z"/>
  <path fill="url(#d)" fill-opacity=".1" d="M480.504 1740 480.503 0H961c-15.258 79.089-38.097 130.297-60.504 180.535l-.01.021-.004.008c-24.353 54.597-48.198 108.055-61.252 194.919-13.447 89.473-40.089 150.459-64.298 205.869-31.443 71.969-58.775 134.53-47.742 237.883 10.195 95.488-30.024 172.374-70.802 250.325l-.003.01c-37.341 71.38-116.264 143.65-116.264 231.93V1740h-59.617Z"/>
  <defs>
    <linearGradient id="a" x1="258.364" x2="691.26" y1="775.357" y2="286.066" gradientUnits="userSpaceOnUse">
      <stop stop-color="#539BC3"/>
      <stop offset="1" stop-color="#539BC3" stop-opacity="0"/>
    </linearGradient>
    <linearGradient id="b" x1="258.364" x2="691.26" y1="775.357" y2="286.066" gradientUnits="userSpaceOnUse">
      <stop stop-color="#539BC3"/>
      <stop offset="1" stop-color="#539BC3" stop-opacity="0"/>
    </linearGradient>
    <linearGradient id="c" x1="180.257" x2="766.055" y1="710.825" y2="49.407" gradientUnits="userSpaceOnUse">
      <stop stop-color="#539BC3"/>
      <stop offset="1" stop-color="#539BC3" stop-opacity="0"/>
    </linearGradient>
    <linearGradient id="d" x1="180.257" x2="766.055" y1="710.825" y2="49.407" gradientUnits="userSpaceOnUse">
      <stop stop-color="#539BC3"/>
      <stop offset="1" stop-color="#539BC3" stop-opacity="0"/>
    </linearGradient>
  </defs>
</svg>
