<svg width="320" height="469" fill="none" xmlns="http://www.w3.org/2000/svg"><mask id="a" style="mask-type:alpha" maskUnits="userSpaceOnUse" x="-316" y="0" width="891" height="469"><path fill="#003ECB" d="M-316 0h891v468.006h-891z"/></mask><g mask="url(#a)"><path opacity=".25" transform="matrix(.8337 -.55222 .36492 .93104 -385.791 386.858)" fill="url(#b)" d="M0 0h1064.73v406.98H0z"/><path opacity=".25" transform="matrix(.8337 -.55222 .36492 .93104 244.25 278.858)" fill="url(#c)" d="M0 0h532.17v160.728H0z"/><path opacity=".3" d="M52.958 213.307c-55.695-48.41-63.513-2.283-67.222-1.598 0 0-1.655 11.132 0 51.721l542.916 313.471V356.313c-61.745-110.58-102.603-187.82-142.777-152.14-69.619 61.712-103.516 103.158-186.317 17.526-49.076-50.751-79.72 49.724-146.6-8.392Z" fill="url(#d)"/><path opacity=".3" d="M124.689 252.241c-55.696-48.41-67.28-6.299-67.28-1.598v98.249l542.916 266.943V395.247c-87.88-127.649-145.801-103.901-196.018-85.461-49.19 18.04-67.223-19.638-129.481-73.358-51.187-44.186-83.257 73.929-150.137 15.813Z" fill="url(#e)"/><path d="M271.346 232.986c0-3.795-2.222-8.231-5-9.907-2.778-1.676-5 0-5 3.795s2.222 8.231 5 9.907c2.731 1.676 5 0 5-3.795Z" fill="#ED1C24"/><path opacity=".07" d="m239.346-8.57 87 50.38v171.62l-87-50.379V-8.57Z" fill="#fff"/><path opacity=".3" d="M310.346 56.81 223.393 6.43l-.047 171.668 37.636 21.76 5.887 11.684 5.888-4.825 37.589 21.713V56.81Z" fill="url(#f)"/><path opacity=".1" d="M298.346 109.89c0 7.335-1.409 13.77-4.038 18.597-2.629 4.826-6.432 7.902-10.986 8.943l-14.976-45 30 17.46Z" fill="#fff"/><path opacity=".3" d="M283.346 138.052c-5.697 1.297-12.28-.768-18.817-5.811-6.49-5.09-12.56-12.918-17.183-22.283l21.105-17.528 14.895 45.622Z" fill="#fff"/><path d="M298.346 110.43c0-6.926-1.223-14.422-3.527-21.87-2.351-7.448-5.689-14.611-9.78-20.826-4.091-6.214-8.84-11.338-13.731-14.896-4.937-3.558-9.874-5.408-14.435-5.408-4.562 0-8.605 1.803-11.709 5.313-3.15 3.51-5.266 8.587-6.254 14.801-.94 6.215-.705 13.33.706 20.779 1.41 7.448 3.996 14.943 7.523 21.87l21.254-17.316 29.953 17.553Z" fill="#ED1C24"/><path opacity=".15" d="m234.346 136.43 60 34.613v6.387l-60-34.613v-6.387ZM234.346 148.43l63 36.517v6.483l-63-36.517v-6.483ZM234.346 161.43l42 23.684v6.316l-42-23.684v-6.316Z" fill="#fff"/></g><defs><linearGradient id="b" x1="1099.98" y1="145.359" x2="820.771" y2="486.268" gradientUnits="userSpaceOnUse"><stop stop-color="#fff"/><stop offset="1" stop-color="#fff" stop-opacity="0"/></linearGradient><linearGradient id="c" x1="551.106" y1="54.304" x2="462.155" y2="183.825" gradientUnits="userSpaceOnUse"><stop stop-color="#fff"/><stop offset="1" stop-color="#fff" stop-opacity="0"/></linearGradient><linearGradient id="d" x1="356.003" y1="80.228" x2="286.814" y2="299.974" gradientUnits="userSpaceOnUse"><stop stop-color="#fff"/><stop offset="1" stop-color="#fff" stop-opacity="0"/></linearGradient><linearGradient id="e" x1="385.931" y1="174.83" x2="346.633" y2="352.641" gradientUnits="userSpaceOnUse"><stop stop-color="#fff"/><stop offset="1" stop-color="#fff" stop-opacity="0"/></linearGradient><linearGradient id="f" x1="266.846" y1="33.856" x2="266.846" y2="252.06" gradientUnits="userSpaceOnUse"><stop stop-color="#fff" stop-opacity="0"/><stop offset="1" stop-color="#fff"/></linearGradient></defs></svg>