<svg width="1532" height="619" viewBox="0 0 1532 619" fill="none" xmlns="http://www.w3.org/2000/svg">
<mask id="mask0_0:5" style="mask-type:alpha" maskUnits="userSpaceOnUse" x="0" y="0" width="1532" height="619">
<rect width="1532" height="619" fill="#003ECB"/>
</mask>
<g mask="url(#mask0_0:5)">
<rect opacity="0.25" x="-120" y="511.671" width="1712.97" height="562.471" transform="rotate(-27 -120 511.671)" fill="url(#paint0_linear_0:5)"/>
<rect opacity="0.25" x="963.303" y="368.826" width="856.166" height="222.136" transform="rotate(-27 963.303 368.826)" fill="url(#paint1_linear_0:5)"/>
<path opacity="0.3" d="M602.848 415.888C507.085 332.65 493.642 411.961 487.265 413.139C487.265 413.139 484.419 432.28 487.265 502.071L1420.76 1041.06V661.774C1314.6 471.642 1244.35 338.834 1175.27 400.183C1055.57 506.291 997.284 577.554 854.915 430.317C770.533 343.055 717.843 515.813 602.848 415.888Z" fill="url(#paint2_linear_0:5)"/>
<path opacity="0.3" d="M726.183 482.832C630.419 399.594 610.501 472 610.501 480.083C610.501 480.083 610.501 578.5 610.501 649.014L1544 1108V728.717C1392.9 509.236 1293.31 550.07 1206.96 581.775C1122.38 612.793 1091.38 548.008 984.332 455.642C896.32 379.667 841.178 582.756 726.183 482.832Z" fill="url(#paint3_linear_0:5)"/>
<path d="M1238.07 395.275C1238.07 387.422 1233.46 378.49 1227.86 375.25C1222.17 372.011 1217.66 375.643 1217.66 383.496C1217.66 391.348 1222.27 400.281 1227.86 403.52C1233.46 406.857 1238.07 403.127 1238.07 395.275Z" fill="#ED1C24"/>
<path d="M967.358 448.084C967.358 440.525 962.648 431.691 956.761 428.354C950.874 425.017 946.164 428.354 946.164 435.912C946.164 443.47 950.874 452.304 956.761 455.642C962.55 458.979 967.358 455.642 967.358 448.084Z" fill="white"/>
<path opacity="0.07" d="M1172.72 -107L1353.85 -2.4617V353.656L1172.72 249.117V-107Z" fill="white"/>
<path opacity="0.3" d="M1318.52 28.1636L1137.4 -76.3747L1137.3 279.743L1215.6 324.895L1227.96 349.238L1240.22 339.226L1318.52 384.281V28.1636Z" fill="url(#paint4_linear_0:5)"/>
<path opacity="0.1" d="M1294.78 139.18C1294.78 150.567 1293.11 160.971 1289.97 169.708C1286.83 178.444 1282.22 185.315 1276.43 190.026C1270.64 194.738 1263.68 197.094 1256.12 197.094C1248.57 197.094 1240.32 194.64 1232.18 189.83V102.96L1294.78 139.18Z" fill="white"/>
<path opacity="0.3" d="M1232.18 189.928C1221.19 183.548 1210.4 173.339 1200.88 160.186C1191.36 147.033 1183.42 131.524 1177.92 115.132C1172.43 98.7392 1169.48 82.0524 1169.48 66.8379C1169.48 51.6234 1172.43 38.2739 1177.92 28.2618L1232.18 103.058V189.928Z" fill="white"/>
<path d="M1294.78 139.18C1294.78 120.04 1290.27 98.8374 1281.83 78.8131C1273.39 58.7889 1261.62 41.1205 1248.37 28.4581C1235.03 15.7957 1220.9 8.92462 1208.14 8.92462C1195.39 8.92462 1184.79 15.6975 1177.82 28.2618L1232.08 103.058L1294.78 139.18Z" fill="#ED1C24"/>
<path opacity="0.15" d="M1161.04 193.658L1271.43 257.363V270.712L1161.04 207.008V193.658Z" fill="white"/>
<path opacity="0.15" d="M1161.04 219.768L1294.88 297.018V310.368L1161.04 233.118V219.768Z" fill="white"/>
<path opacity="0.15" d="M1161.04 245.878L1247.78 295.939V309.288L1161.04 259.228V245.878Z" fill="white"/>
<path opacity="0.07" d="M901.03 -53.7983L1082.16 50.7399V406.857L901.03 302.319V-53.7983Z" fill="white"/>
<path opacity="0.3" d="M1047.32 81.5615L866.198 -22.9767L866.1 333.239L944.496 378.391L956.761 402.636L969.026 392.624L1047.32 437.679V81.5615Z" fill="url(#paint5_linear_0:5)"/>
<path opacity="0.1" d="M1023.58 192.676C1023.58 207.891 1020.64 221.24 1015.14 231.253C1009.65 241.265 1001.7 247.645 992.182 249.804L960.882 156.456L1023.58 192.676Z" fill="white"/>
<path opacity="0.3" d="M992.28 249.804C980.31 252.455 966.475 248.234 952.738 237.927C939.1 227.523 926.345 211.523 916.631 192.382L960.98 156.554L992.28 249.804Z" fill="white"/>
<path d="M1023.58 192.676C1023.58 178.345 1021.03 162.836 1016.22 147.426C1011.31 132.015 1004.35 117.193 995.812 104.334C987.276 91.4755 977.366 80.8745 967.161 73.5126C956.859 66.1508 946.556 62.3226 937.039 62.3226C927.521 62.3226 919.083 66.0526 912.607 73.3163C906.033 80.58 901.618 91.0829 899.558 103.942C897.595 116.8 898.086 131.524 901.029 146.935C903.973 162.346 909.369 177.855 916.728 192.186L961.078 156.358L1023.58 192.676Z" fill="white"/>
<path opacity="0.15" d="M889.845 247.154L1015.14 319.497V332.846L889.845 260.504V247.154Z" fill="white"/>
<path opacity="0.15" d="M889.845 273.166L1019.95 348.355V361.705L889.845 286.516V273.166Z" fill="white"/>
<path opacity="0.15" d="M889.845 299.276L976.581 349.337V362.686L889.845 312.626V299.276Z" fill="white"/>
</g>
<defs>
<linearGradient id="paint0_linear_0:5" x1="1649.68" y1="712.566" x2="1279.21" y2="1239.12" gradientUnits="userSpaceOnUse">
<stop stop-color="white"/>
<stop offset="1" stop-color="white" stop-opacity="0"/>
</linearGradient>
<linearGradient id="paint1_linear_0:5" x1="1849.93" y1="443.878" x2="1734.64" y2="639.294" gradientUnits="userSpaceOnUse">
<stop stop-color="white"/>
<stop offset="1" stop-color="white" stop-opacity="0"/>
</linearGradient>
<linearGradient id="paint2_linear_0:5" x1="1123.91" y1="187.069" x2="1004.94" y2="564.905" gradientUnits="userSpaceOnUse">
<stop stop-color="white"/>
<stop offset="1" stop-color="white" stop-opacity="0"/>
</linearGradient>
<linearGradient id="paint3_linear_0:5" x1="1175.37" y1="349.729" x2="1107.8" y2="655.46" gradientUnits="userSpaceOnUse">
<stop stop-color="white"/>
<stop offset="1" stop-color="white" stop-opacity="0"/>
</linearGradient>
<linearGradient id="paint4_linear_0:5" x1="1227.91" y1="-16.7903" x2="1227.91" y2="423.305" gradientUnits="userSpaceOnUse">
<stop stop-color="white" stop-opacity="0"/>
<stop offset="1" stop-color="white"/>
</linearGradient>
<linearGradient id="paint5_linear_0:5" x1="956.712" y1="33.9325" x2="956.712" y2="486.711" gradientUnits="userSpaceOnUse">
<stop stop-color="white" stop-opacity="0"/>
<stop offset="1" stop-color="white"/>
</linearGradient>
</defs>
</svg>
