<svg class="main-banner__img" width="1532" height="619" fill="none" xmlns="http://www.w3.org/2000/svg">
    <mask id="a" style="mask-type:alpha" maskUnits="userSpaceOnUse" x="0" y="0" width="1532" height="619">
        <path fill="#003ECB" d="M0 0h1532v619H0z" />
    </mask>
    <g mask="url(#a)">
        <path class="main-banner__line" opacity=".25" transform="rotate(-27 -120 511.671)" fill="url(#b)"
            d="M-120 511.671h1712.97v562.471H-120z" />
        <path class="main-banner__line" opacity=".25" transform="rotate(-27 963.303 368.826)" fill="url(#c)"
            d="M963.303 368.826h856.166v222.136H963.303z" />
        <path opacity=".3"
            d="M602.848 415.888c-95.763-83.238-109.206-3.927-115.583-2.749 0 0-2.846 19.141 0 88.932l933.495 538.989V661.774c-106.16-190.132-176.41-322.94-245.49-261.591-119.7 106.108-177.986 177.371-320.355 30.134-84.382-87.262-137.072 85.496-252.067-14.429Z"
            fill="url(#d)" />
        <path opacity=".3"
            d="M726.183 482.832c-95.764-83.238-115.682-10.832-115.682-2.749v168.931L1544 1108V728.717c-151.1-219.481-250.69-178.647-337.04-146.942-84.58 31.018-115.58-33.767-222.628-126.133-88.012-75.975-143.154 127.114-258.149 27.19Z"
            fill="url(#e)" />
        <path
            d="M1238.07 395.275c0-7.853-4.61-16.785-10.21-20.025-5.69-3.239-10.2.393-10.2 8.246 0 7.852 4.61 16.785 10.2 20.024 5.6 3.337 10.21-.393 10.21-8.245Z"
            fill="#ED1C24" />
        <path
            d="M967.358 448.084c0-7.559-4.71-16.393-10.597-19.73-5.887-3.337-10.597 0-10.597 7.558s4.71 16.392 10.597 19.73c5.789 3.337 10.597 0 10.597-7.558Z"
            fill="#fff" />
        <path opacity=".07" d="M1172.72-107 1353.85-2.462v356.118l-181.13-104.539V-107Z" fill="#fff" />
        <path opacity=".3"
            d="M1318.52 28.164 1137.4-76.375l-.1 356.118 78.3 45.152 12.36 24.343 12.26-10.012 78.3 45.055V28.164Z"
            fill="url(#f)" />
        <path opacity=".1"
            d="M1294.78 139.18c0 11.387-1.67 21.791-4.81 30.528-3.14 8.736-7.75 15.607-13.54 20.318-5.79 4.712-12.75 7.068-20.31 7.068-7.55 0-15.8-2.454-23.94-7.264v-86.87l62.6 36.22Z"
            fill="#fff" />
        <path opacity=".3"
            d="M1232.18 189.928c-10.99-6.38-21.78-16.589-31.3-29.742-9.52-13.153-17.46-28.662-22.96-45.054-5.49-16.393-8.44-33.08-8.44-48.294 0-15.215 2.95-28.564 8.44-38.576l54.26 74.796v86.87Z"
            fill="#fff" />
        <path
            d="M1294.78 139.18c0-19.14-4.51-40.343-12.95-60.367-8.44-20.024-20.21-37.693-33.46-50.355-13.34-12.662-27.47-19.533-40.23-19.533-12.75 0-23.35 6.772-30.32 19.337l54.26 74.796 62.7 36.122Z"
            fill="#ED1C24" />
        <path opacity=".15"
            d="m1161.04 193.658 110.39 63.705v13.349l-110.39-63.704v-13.35ZM1161.04 219.768l133.84 77.25v13.35l-133.84-77.25v-13.35ZM1161.04 245.878l86.74 50.061v13.349l-86.74-50.06v-13.35Z"
            fill="#fff" />
        <path opacity=".07" d="M901.03-53.798 1082.16 50.74v356.117L901.03 302.319V-53.798Z" fill="#fff" />
        <path opacity=".3"
            d="M1047.32 81.561 866.198-22.977 866.1 333.24l78.396 45.152 12.265 24.245 12.265-10.012 78.294 45.055V81.562Z"
            fill="url(#g)" />
        <path opacity=".1"
            d="M1023.58 192.676c0 15.215-2.94 28.564-8.44 38.577-5.49 10.012-13.44 16.392-22.958 18.551l-31.3-93.348 62.698 36.22Z"
            fill="#fff" />
        <path opacity=".3"
            d="M992.28 249.804c-11.97 2.651-25.805-1.57-39.542-11.877-13.638-10.404-26.393-26.404-36.107-45.545l44.349-35.828 31.3 93.25Z"
            fill="#fff" />
        <path
            d="M1023.58 192.676c0-14.331-2.55-29.84-7.36-45.25-4.91-15.411-11.87-30.233-20.408-43.092-8.536-12.859-18.446-23.46-28.651-30.821-10.302-7.362-20.605-11.19-30.122-11.19-9.518 0-17.956 3.73-24.432 10.993-6.574 7.264-10.989 17.767-13.049 30.626-1.963 12.858-1.472 27.582 1.471 42.993 2.944 15.411 8.34 30.92 15.699 45.251l44.35-35.828 62.502 36.318Z"
            fill="#fff" />
        <path opacity=".15"
            d="m889.845 247.154 125.295 72.343v13.349l-125.295-72.342v-13.35ZM889.845 273.166l130.105 75.189v13.35l-130.105-75.189v-13.35ZM889.845 299.276l86.736 50.061v13.349l-86.736-50.06v-13.35Z"
            fill="#fff" />
    </g>
    <defs>
        <linearGradient id="b" x1="1649.68" y1="712.566" x2="1279.21" y2="1239.12"
            gradientUnits="userSpaceOnUse">
            <stop stop-color="#fff" />
            <stop offset="1" stop-color="#fff" stop-opacity="0" />
        </linearGradient>
        <linearGradient id="c" x1="1849.93" y1="443.878" x2="1734.64" y2="639.294"
            gradientUnits="userSpaceOnUse">
            <stop stop-color="#fff" />
            <stop offset="1" stop-color="#fff" stop-opacity="0" />
        </linearGradient>
        <linearGradient id="d" x1="1123.91" y1="187.069" x2="1004.94" y2="564.905"
            gradientUnits="userSpaceOnUse">
            <stop stop-color="#fff" />
            <stop offset="1" stop-color="#fff" stop-opacity="0" />
        </linearGradient>
        <linearGradient id="e" x1="1175.37" y1="349.729" x2="1107.8" y2="655.46" gradientUnits="userSpaceOnUse">
            <stop stop-color="#fff" />
            <stop offset="1" stop-color="#fff" stop-opacity="0" />
        </linearGradient>
        <linearGradient id="f" x1="1227.91" y1="-16.79" x2="1227.91" y2="423.305"
            gradientUnits="userSpaceOnUse">
            <stop stop-color="#fff" stop-opacity="0" />
            <stop offset="1" stop-color="#fff" />
        </linearGradient>
        <linearGradient id="g" x1="956.712" y1="33.932" x2="956.712" y2="486.711"
            gradientUnits="userSpaceOnUse">
            <stop stop-color="#fff" stop-opacity="0" />
            <stop offset="1" stop-color="#fff" />
        </linearGradient>
    </defs>
</svg>